<svg width="13" height="12" viewBox="0 0 13 12" fill="none" xmlns="http://www.w3.org/2000/svg">
<path d="M0 7.98214C0 7.16964 0.0797982 6.33538 0.384486 5.56641C1.39286 3.06362 4.35268 2.64286 6.73214 2.64286H8.35714V0.785714C8.35714 0.531807 8.56752 0.321428 8.82143 0.321428C8.94475 0.321428 9.06083 0.372209 9.14788 0.459263L12.8622 4.17355C12.9492 4.2606 13 4.37667 13 4.5C13 4.62333 12.9492 4.7394 12.8622 4.82645L9.14788 8.54074C9.06083 8.62779 8.94475 8.67857 8.82143 8.67857C8.56752 8.67857 8.35714 8.46819 8.35714 8.21429V6.35714H6.73214C3.60547 6.35714 1.55245 6.95926 1.55245 10.4196C1.55245 10.7171 1.56696 11.0145 1.58873 11.3119C1.59598 11.428 1.625 11.5586 1.625 11.6747C1.625 11.8125 1.53795 11.9286 1.39286 11.9286C1.29129 11.9286 1.24051 11.8778 1.18973 11.8052C1.08091 11.6529 1.00112 11.4208 0.921317 11.2539C0.507812 10.3253 0 8.99777 0 7.98214Z" fill="#5CA94E"/>
</svg>
