<svg width="64" height="64" viewBox="0 0 64 64" fill="none" xmlns="http://www.w3.org/2000/svg">
<g clip-path="url(#clip0)">
<path d="M32.3206 17.3548L31.8004 17.424C31.7735 17.4276 31.7587 17.4497 31.7474 17.475C31.9388 17.4831 32.1326 17.4768 32.3344 17.4585C32.4085 17.451 32.3944 17.345 32.3206 17.3548Z" fill="#5CA94E"/>
<path d="M60.878 48.8747C60.8494 48.8065 60.8808 48.7761 60.9478 48.8074C60.9497 48.8084 60.9517 48.8093 60.9535 48.8097C61.021 48.8398 61.0524 48.81 61.0227 48.7426C60.4469 47.4139 59.5462 46.3249 58.915 45.0701C58.8817 45.0038 58.8973 44.9926 58.9495 45.0454C59.0659 45.1635 59.1822 45.2816 59.299 45.3984C59.3512 45.4512 59.4005 45.4873 59.4098 45.4794C59.4191 45.4708 59.3889 45.4181 59.3433 45.3601C58.6747 44.516 58.006 43.6718 57.3374 42.8282C57.2919 42.7702 57.2726 42.7075 57.2957 42.6886C57.3188 42.6696 57.3786 42.6976 57.4291 42.7513C57.5716 42.9013 57.7137 43.0519 57.8568 43.2018C57.9073 43.2555 57.9576 43.2945 57.9673 43.2896C57.977 43.2846 57.9635 43.2334 57.9357 43.1755C57.9078 43.1176 57.8956 43.0576 57.9085 43.04C57.9209 43.0231 57.9782 43.046 58.0367 43.0913C58.3139 43.3087 58.5945 43.5288 58.9057 43.7728C58.9643 43.8187 58.9748 43.8063 58.9303 43.7469C58.8531 43.6432 58.7838 43.5493 58.7178 43.4611C58.6733 43.4018 58.6453 43.3335 58.6565 43.3168C58.6671 43.3001 58.7265 43.302 58.7932 43.3358C59.1235 43.5077 59.4531 43.6554 59.8068 43.8388C59.873 43.8727 59.8921 43.8061 59.8585 43.7502C59.8247 43.6937 59.989 43.5718 59.9177 43.5673C59.5794 43.5464 59.2377 43.1467 59.2377 43.1467C58.6752 42.472 57.9971 41.8681 57.4449 41.1847C56.6911 40.2506 56.0898 39.2114 55.724 38.0579C55.6788 37.9151 55.6437 37.7666 55.6154 37.6179C55.6015 37.5454 55.5803 37.5287 55.5751 37.5806C55.5703 37.6319 55.5377 37.6204 55.5043 37.5534C55.0983 36.7487 54.7097 35.9782 54.3227 35.2106C54.2894 35.1443 54.2671 35.0868 54.2726 35.0818C54.2792 35.0767 54.3176 35.1222 54.3593 35.1831C54.5095 35.4047 54.6596 35.625 54.81 35.8472C54.8521 35.9074 54.8952 35.9517 54.9091 35.9456C54.921 35.9391 54.9114 35.8855 54.8848 35.8274C54.8691 35.7917 54.8528 35.7567 54.831 35.7254C53.9131 34.3929 53.0003 33.0573 52.0668 31.736C51.8833 31.4756 51.6422 31.2405 51.3842 31.0522C50.6014 30.4825 49.7943 29.9452 49.0037 29.3856C48.7229 29.1869 48.4636 28.9574 48.1909 28.746C48.0502 28.6373 47.9126 28.5159 47.7549 28.4399C46.7164 27.9426 45.7675 27.3346 44.934 26.5209C43.8228 25.4361 42.4197 24.7971 41.0235 24.1644C40.6879 24.0127 40.3541 23.8461 40.0026 23.7441C39.5356 23.6086 39.0546 23.4592 38.5762 23.4436C37.8888 23.421 37.1976 23.5478 36.5086 23.545C36.0118 23.5428 35.5091 23.464 35.0201 23.3644C33.8509 23.1267 32.6906 22.8462 31.5227 22.6041C30.7562 22.4451 30.2606 21.8608 29.6478 21.4593C29.6117 21.4355 29.5872 21.3936 29.5653 21.3477C29.5337 21.2806 29.5202 21.211 29.5354 21.1919C29.5505 21.1728 29.6193 21.1765 29.6895 21.2C29.8787 21.2645 30.0697 21.3294 30.2741 21.3991C30.3444 21.4227 30.3596 21.3993 30.3079 21.3458C30.2526 21.2879 30.1995 21.2328 30.1472 21.1788C30.0956 21.1253 30.0584 21.0704 30.0638 21.0563C30.0692 21.0421 30.131 21.0479 30.2016 21.0697C30.5194 21.1658 30.8372 21.2626 31.155 21.3587C31.2256 21.3804 31.2939 21.3847 31.3065 21.3696C31.3196 21.3539 31.2916 21.2948 31.245 21.2375C31.2027 21.1858 31.1553 21.1275 31.0949 21.0538C31.0482 20.9966 31.0684 20.9646 31.1403 20.9825C31.6483 21.1101 32.0994 21.2232 32.5456 21.3352C32.6175 21.3531 32.6776 21.3603 32.6806 21.3508C32.6842 21.3411 32.6298 21.3124 32.5599 21.2869C32.1695 21.1401 31.7792 20.9938 31.3888 20.8469C31.32 20.8207 31.2694 20.7793 31.277 20.7545C31.2853 20.7296 31.35 20.721 31.4227 20.7351C31.5792 20.7655 31.7351 20.796 31.8917 20.8263C31.9643 20.8405 32.0274 20.8382 32.0324 20.8204C32.0374 20.8033 31.9905 20.7577 31.9279 20.7184C31.8867 20.6928 31.8456 20.6678 31.8043 20.6422C31.7407 20.6037 31.6927 20.5552 31.6954 20.5341C31.6981 20.513 31.7605 20.4961 31.8344 20.4967C31.9387 20.4968 32.0449 20.4973 32.1577 20.4969C32.2315 20.4969 32.2413 20.4651 32.1787 20.4258C32.1435 20.4043 32.1088 20.3821 32.0716 20.359C32.0084 20.3198 32.0061 20.2518 32.0711 20.2181C32.4711 20.0106 32.8787 20.1862 33.3048 20.1978C33.3788 20.1996 33.3855 20.1676 33.32 20.1336C32.8849 19.9073 32.482 19.6986 32.0823 19.4908C32.0162 19.4569 31.9646 19.4223 31.9671 19.4134C31.9689 19.4046 32.0286 19.4132 32.1 19.4317L32.8239 19.619C32.8953 19.6375 32.9595 19.6381 32.9661 19.6196C32.9729 19.6016 32.9232 19.5625 32.8562 19.5317C32.5623 19.3994 32.2685 19.2678 31.9746 19.1355C31.9072 19.1061 31.8544 19.0667 31.8576 19.0492C31.8607 19.0317 31.9223 19.0266 31.9957 19.0376C32.0654 19.0478 32.1381 19.0582 32.2159 19.0698C32.2893 19.0802 32.3144 19.0397 32.265 18.9846C31.9058 18.5957 31.3552 18.5879 30.9532 18.3035C30.8932 18.2609 30.9075 18.2309 30.9807 18.2444C31.0539 18.2584 31.1321 18.273 31.2234 18.2901C31.296 18.3036 31.3032 18.285 31.2386 18.2484C31.1951 18.2237 31.1554 18.201 31.1151 18.1777C31.0505 18.1411 31.0577 18.0987 31.1301 18.0842C31.2263 18.0647 31.3166 18.0459 31.4169 18.0253C31.4894 18.0107 31.4892 17.9864 31.4165 17.9722C31.2838 17.9466 31.1671 17.9219 31.055 17.9002C30.9824 17.8861 30.924 17.8597 30.9257 17.8448C30.9273 17.83 30.987 17.8153 31.0614 17.8201C31.259 17.8334 31.4563 17.8358 31.6531 17.834C31.6902 17.8333 31.7231 17.7869 31.7594 17.7619C31.8142 17.7247 31.8132 17.6212 31.7672 17.5962C31.7376 17.58 31.7337 17.5189 31.7521 17.4738C31.4484 17.4605 31.157 17.3975 30.8797 17.202C30.8192 17.1594 30.8324 17.1168 30.9067 17.1112C30.9713 17.1062 31.0382 17.1004 31.1107 17.095C31.1843 17.0895 31.1864 17.0684 31.1154 17.048C31.1014 17.0438 31.0868 17.0396 31.0741 17.0358C31.0031 17.0154 30.9984 16.9709 31.0639 16.9365C31.3256 16.7992 31.5919 16.6601 31.8594 16.5202C31.9249 16.4858 31.9731 16.4446 31.9673 16.4283C31.9615 16.412 31.8969 16.4035 31.8234 16.4103C31.8029 16.4118 31.7818 16.414 31.7589 16.4158C31.6853 16.422 31.6553 16.3753 31.6919 16.3113C31.7656 16.1825 31.8314 16.067 31.8897 15.9647C31.9257 15.9008 31.9176 15.8171 31.8731 15.7754C31.8404 15.745 31.8123 15.7128 31.8165 15.6848C31.8289 15.6044 31.9135 15.5108 31.9923 15.4704C32.1454 15.3927 32.3064 15.3335 32.4578 15.2334C32.5189 15.1929 32.5058 15.1587 32.4316 15.1649C31.992 15.2027 31.5529 15.2398 31.1133 15.2776C31.0397 15.2838 30.9744 15.2699 30.9688 15.2462C30.9632 15.2226 30.9842 15.1832 31.0163 15.1588C31.0491 15.1343 31.0154 15.1101 30.9414 15.1047C30.8645 15.0991 30.7875 15.0941 30.7118 15.0889C30.6379 15.0835 30.5756 15.0644 30.5731 15.0458C30.5706 15.0272 30.6267 14.9996 30.6991 14.9845C30.8594 14.9509 31.0244 14.9168 31.213 14.877C31.2854 14.8619 31.2841 14.8474 31.2105 14.8444C30.8923 14.8319 30.6017 14.8206 30.3147 14.8088C30.2405 14.8058 30.1755 14.7852 30.17 14.7621C30.1639 14.7392 30.2154 14.7 30.2845 14.6737C30.313 14.6632 30.3415 14.6527 30.37 14.6422C30.4385 14.6166 30.4406 14.5724 30.3721 14.5437C29.8139 14.3094 29.2461 14.0715 28.6039 13.802C28.5355 13.7733 28.5401 13.7483 28.6143 13.7469C29.0815 13.7421 29.5011 13.7875 29.8521 13.5565C29.9138 13.516 29.899 13.4734 29.8248 13.4705C29.6845 13.4654 29.5367 13.4595 29.3883 13.4536C29.3141 13.4507 29.2599 13.4329 29.2672 13.4142C29.2744 13.395 29.221 13.3697 29.148 13.3575C28.9227 13.3192 28.698 13.2808 28.4726 13.2419C28.3996 13.2296 28.3403 13.196 28.3401 13.1674C28.34 13.1387 28.398 13.1024 28.4702 13.086C28.633 13.0491 28.7952 13.0123 28.958 12.9753C29.0303 12.959 29.0863 12.9351 29.0839 12.922C29.0816 12.9089 29.0189 12.8965 28.9449 12.8947C28.7508 12.8895 28.5563 12.8849 28.3622 12.8796C28.2882 12.8779 28.2259 12.8545 28.2235 12.8273C28.2211 12.8002 28.2764 12.7617 28.3474 12.7407C28.4672 12.7058 28.5869 12.671 28.7066 12.6355C28.7777 12.6151 28.8007 12.5772 28.7577 12.5519C28.7147 12.5265 28.6735 12.4826 28.6654 12.4538C28.6573 12.425 28.7062 12.38 28.7752 12.3531C29.2678 12.1589 29.762 11.9631 30.2858 11.7562C30.3547 11.7287 30.3519 11.7211 30.2804 11.7386C29.6524 11.8911 29.4879 11.9252 29.4009 11.8575C29.3424 11.8122 29.3717 11.7162 29.4341 11.6762C29.5727 11.5858 29.7023 11.4874 29.6396 11.2731C29.6186 11.2021 29.5295 11.1609 29.4562 11.1737C29.3371 11.1951 29.2012 11.2193 29.068 11.2541C28.567 11.3848 28.5237 11.3991 28.2769 11.0526C28.2341 10.9924 28.2501 10.911 28.3125 10.871C28.5234 10.7368 28.7342 10.602 28.9444 10.4678C29.0068 10.4278 29.0494 10.3813 29.0391 10.3637C29.0289 10.3462 28.9679 10.3598 28.9032 10.3965C28.7472 10.4849 28.5937 10.578 28.4282 10.6403C28.2139 10.7212 27.9817 10.9242 27.757 10.643C27.7424 10.6248 27.6958 10.6322 27.6646 10.6266C26.6306 10.4288 25.5964 10.2335 24.5637 10.0312C24.382 9.99566 24.2043 9.94308 24.0299 9.85223C23.9644 9.81826 23.9735 9.78106 24.0472 9.77612L24.124 9.77079C24.1977 9.76585 24.2621 9.74996 24.2676 9.73641C24.2731 9.72287 24.2212 9.69014 24.1513 9.66467C23.8768 9.56338 23.6017 9.46276 23.3272 9.36146C23.2549 9.33632 23.2019 9.30435 23.2049 9.29052C23.2085 9.27662 23.2708 9.26345 23.3451 9.2621C23.3664 9.26171 23.3871 9.26139 23.4065 9.26064C23.4806 9.25869 23.483 9.24007 23.4119 9.21904C22.8077 9.03722 22.15 8.83932 21.4886 8.6401C21.4174 8.61907 21.3616 8.57955 21.364 8.55238C21.3659 8.52529 21.4276 8.49817 21.5012 8.49203C21.6586 8.479 21.8251 8.46477 22.0296 8.44791C22.1032 8.44177 22.1036 8.43134 22.0296 8.42474C21.9068 8.41424 21.8061 8.40507 21.7 8.39602C21.626 8.38942 21.6158 8.3499 21.6766 8.30704C21.9684 8.1029 22.2329 7.91824 22.4863 7.74117C22.5471 7.69892 22.5386 7.68054 22.4677 7.70218C22.1214 7.80867 21.7724 7.91368 21.4238 8.02108C21.3529 8.04273 21.2859 8.03456 21.2746 8.00923C21.2634 7.9845 21.2854 7.92485 21.3254 7.89145C21.3655 7.85806 21.3343 7.80244 21.261 7.79695C21.0639 7.78233 20.867 7.72376 20.6773 7.70998C20.6773 7.70998 21.1406 7.50191 20.4323 7.49618C19.7698 7.49046 19.1839 7.32266 18.5863 7.03991C18.1007 6.80996 17.5419 6.71356 17.005 6.61609C16.3643 6.4995 15.7116 6.44855 15.0656 6.36133C14.8253 6.32928 14.5866 6.23542 14.3489 6.24145C14.0499 6.24954 13.7522 6.30442 13.4856 6.3454C13.4127 6.35633 13.2992 6.33789 13.2351 6.30068C13.1663 6.26043 13.1011 6.22458 13.041 6.23136C11.7464 6.37994 10.4593 6.5763 9.2447 7.07837C9.00245 7.17832 8.79014 7.34749 8.55296 7.46263C8.4619 7.50708 8.31718 7.53793 8.23968 7.49641C7.9576 7.34305 7.69214 7.15881 7.42397 6.98164C7.30093 6.90043 7.18068 6.81275 7.0606 6.72627C7.00056 6.68303 6.93604 6.66112 6.91614 6.67658C6.89624 6.69204 6.8874 6.75848 6.89685 6.82492C6.90288 6.8656 6.91002 6.90551 6.92532 6.94251C7.01781 7.16991 7.12128 7.39279 7.22124 7.61675C7.42835 8.08201 7.42416 8.07342 6.96261 8.29467C6.76367 8.39008 6.55074 8.49956 6.40863 8.65998C6.21677 8.87278 5.99667 8.89172 5.75199 8.91392C5.54351 8.93314 5.33826 8.99035 5.13001 9.02052C4.45794 9.11732 3.79932 9.06776 3.15611 8.83623C3.11956 8.8228 3.07809 8.82283 3.03634 8.82534C2.96917 8.8294 2.92561 8.88704 2.93874 8.95361C2.94681 8.99584 2.95898 9.03692 2.98351 9.06537C3.30211 9.44259 3.63081 9.79956 4.14383 9.92828C4.42277 9.99849 4.69355 10.1174 4.95418 10.2425C5.40973 10.4618 5.54783 10.7752 5.47422 11.276C5.36324 12.0368 5.22182 12.7979 5.1876 13.5624C5.17082 13.9312 5.36584 14.3103 5.47157 14.6829C5.5198 14.8528 5.61865 15.0134 5.63908 15.1852C5.81929 16.7129 5.7709 18.2369 5.54271 19.7573C5.50375 20.0144 5.48656 20.2747 5.46942 20.4942C5.46401 20.5681 5.44422 20.6622 5.43805 20.7075C5.43445 20.7355 5.43385 20.763 5.43744 20.79C5.44143 20.8199 5.44937 20.8475 5.45948 20.873C5.47813 20.9169 5.51615 20.9734 5.53888 21.0021C5.56101 21.0309 5.59328 21.0717 5.6099 21.0958C5.61968 21.1097 5.62999 21.123 5.64277 21.1365C5.73053 21.2322 5.82696 21.3151 5.92407 21.3986C5.98048 21.4465 5.99908 21.5404 5.96179 21.604C5.93198 21.6549 5.90028 21.7055 5.86799 21.7561C5.84333 21.7954 5.82806 21.8365 5.82022 21.8784C5.80722 21.9503 5.81512 22.0187 5.81132 22.0314C5.80825 22.0404 5.80689 22.0485 5.80784 22.0557C5.81838 22.1348 5.87213 22.2454 5.93745 22.2733C6.24259 22.4028 6.55456 22.515 6.88703 22.6391C6.95631 22.6646 6.96888 22.727 6.91469 22.7781C6.89028 22.8009 6.86646 22.8236 6.84152 22.847C6.78726 22.8975 6.79312 22.9736 6.85863 23.0076C7.19729 23.1827 7.52771 23.1265 7.86917 23.0249C8.02995 22.9773 8.20547 22.9808 8.37304 22.9566C8.44727 22.9461 8.55251 22.9486 8.58664 22.9026C8.79129 22.6301 9.07981 22.5661 9.3907 22.4869C9.82074 22.3772 10.1317 21.7899 10.0121 21.3544C9.855 20.7837 9.96552 20.3219 10.3142 19.8253C10.6065 19.4095 10.7101 18.8638 10.9183 18.3847C10.9729 18.2585 11.0881 18.134 11.2078 18.0668C11.3969 17.9612 11.58 18.013 11.6666 18.2327C11.8771 18.7688 12.1755 19.2927 12.263 19.8489C12.394 20.6817 12.4024 21.5376 12.4108 22.3837C12.4201 23.3333 12.0579 24.1861 11.6381 25.0233C11.1658 25.9651 10.9539 26.9436 11.2813 28.001C11.4589 28.5745 11.5505 29.1753 11.6562 29.7681C11.6761 29.8807 11.6194 30.064 11.533 30.1297C9.98883 31.3088 8.6991 32.7449 7.40258 34.1759C7.18618 34.4151 6.92621 34.6156 6.71661 34.8601C6.16944 35.4965 6.18628 36.2231 6.43134 36.9688C6.4866 37.1365 6.55836 37.3136 6.66989 37.4457C7.19499 38.073 7.31056 38.7944 7.22331 39.5776C7.0878 40.7954 6.97645 42.0161 6.82727 43.2321C6.78406 43.5855 6.86486 43.8809 7.07517 44.1366C7.55749 44.7219 7.9086 45.3754 8.14023 46.0936C8.33465 46.6972 8.73817 47.1533 9.16159 47.6032C9.48994 47.9529 9.78776 48.3299 10.1073 48.6868C10.3739 48.985 10.6071 49.046 10.9283 48.8154C11.191 48.6261 11.4624 48.3832 11.6011 48.1006C11.9896 47.3078 12.0085 46.4648 11.7287 45.6274C11.674 45.4645 11.5794 45.285 11.4487 45.1828C10.9585 44.7998 10.4582 44.4278 9.93784 44.0878C9.59776 43.8654 9.43966 43.4796 9.56323 43.0929C9.63558 42.8667 9.67003 42.6169 9.66401 42.3793C9.65683 42.11 9.6057 41.8405 9.55985 41.5282C9.54892 41.4553 9.59515 41.4223 9.66023 41.4575C10.1381 41.7165 10.5072 42.0334 10.6473 42.5124C10.9008 43.3814 11.5025 43.6996 12.3336 43.8445C13.7816 44.0964 15.2197 44.2605 16.6872 44.0127C17.366 43.8979 17.3784 43.9359 17.236 43.2516C17.029 42.2557 16.4215 41.504 15.7152 40.8215C15.6381 40.7464 15.4891 40.6943 15.3842 40.7089C15.0532 40.756 14.724 40.826 14.4024 40.9164C14.3013 40.9451 14.2187 41.0623 14.1421 41.1511C13.999 41.3178 13.8629 41.4909 13.7143 41.6759C13.6677 41.734 13.5991 41.7407 13.5598 41.6928C13.53 41.6566 13.5095 41.6312 13.4935 41.6029C13.1861 41.0533 13.1853 41.0425 12.5879 41.1226C12.1403 41.1828 11.764 41.0048 11.5139 40.6929C10.9435 39.982 10.4223 39.2286 9.90507 38.4771C9.83397 38.3737 9.85515 38.1616 9.90839 38.0301C10.0034 37.7955 10.1323 37.5636 10.293 37.3684C10.3869 37.254 10.5631 37.1708 10.7147 37.1457C12.057 36.9152 13.4094 36.7375 14.7437 36.4702C15.9563 36.2277 17.1519 35.8989 18.3514 35.5947C18.503 35.5562 18.6826 35.4615 18.7625 35.338C19.0321 34.9215 19.393 34.8833 19.8144 35.0156C20.645 35.2753 21.4664 35.5673 22.3051 35.7966C23.5092 36.1273 24.7304 36.3941 25.9355 36.7222C28.2524 37.353 30.6427 37.3062 33.005 37.5126C33.5036 37.556 34.0089 37.526 34.5111 37.514C34.7391 37.5086 34.9121 37.5844 34.9969 37.7909C35.1149 38.0771 35.262 38.3668 35.3027 38.6675C35.4514 39.7615 35.9047 40.7106 36.5644 41.5798C36.7936 41.8805 37.0195 42.1895 37.1944 42.5224C37.5837 43.2617 37.5471 44.0034 37.1064 44.7159C36.2457 46.1083 35.185 47.345 34.1051 48.566C33.7728 48.942 33.4393 49.3188 33.1376 49.7189C33.0334 49.8572 32.9702 50.0699 32.9805 50.2436C33.042 51.237 33.0707 52.2267 32.8971 53.2136C32.7725 53.9224 33.1435 54.4775 33.4972 55.0312C33.7992 55.504 34.1085 55.9715 34.4563 56.504C34.4967 56.5651 34.5634 56.5666 34.606 56.506C34.8684 56.1314 35.1168 55.8025 35.3292 55.4509C35.7631 54.7338 36.0015 53.9402 36.1114 53.1162C36.1446 52.8666 36.0548 52.5858 35.9657 52.3384C35.8548 52.0275 35.6599 51.7454 35.5561 51.4329C35.5203 51.3248 35.6138 51.0836 35.7113 51.0371C36.1066 50.8491 36.2094 50.4804 36.405 50.1451C36.7806 49.5022 37.2322 48.9041 37.6694 48.2988C38.1369 47.6504 38.7283 47.1356 39.3868 46.6752C40.0893 46.184 40.7529 45.6339 41.405 45.0756C41.5671 44.9375 41.6584 44.7162 41.7759 44.4992C41.8111 44.4336 41.9009 44.3978 41.9707 44.4227C42.5719 44.6275 43.0617 45.0582 43.441 45.6853C44.1922 46.9253 44.1247 48.2 43.6822 49.4898C43.2806 50.6606 42.8209 51.8118 42.3816 52.97C42.1125 53.6792 41.6081 54.2106 41.0633 54.7137C40.9107 54.8548 40.7539 55.0148 40.6643 55.1987C40.0463 56.4759 39.599 57.8169 39.196 59.174C39.089 59.5341 39.1289 59.6319 39.513 59.6307C39.9893 59.6308 40.471 59.5788 40.9405 59.495C41.7453 59.3512 42.4855 59.0508 43.0504 58.4242C43.4783 57.95 43.6887 57.409 43.5459 56.7632C43.5379 56.7301 43.5364 56.6962 43.5243 56.6648C43.3166 56.085 43.4133 55.6616 44.0375 55.3791C44.5097 55.1649 44.7153 54.6752 44.8738 54.207C45.333 52.8552 45.7469 51.4881 46.2254 50.1435C46.5991 49.0929 47.0311 48.0631 47.4569 47.0329C47.7384 46.3526 48.0417 45.6803 48.3609 45.0175C48.6697 44.3731 48.4978 43.8562 48.0604 43.3375C47.4782 42.6483 46.9461 41.9176 46.3903 41.2066C45.8971 40.5763 45.9879 39.8567 46.3455 39.2852C47.2547 37.8314 47.5427 36.1694 48.0926 34.5957C48.1355 34.4735 48.1545 34.341 48.1996 34.213C48.2239 34.1433 48.2534 34.1498 48.2535 34.2235C48.2524 34.3073 48.2536 34.3894 48.268 34.4699C48.4495 35.4942 48.6496 36.5161 48.818 37.5427C48.8965 38.027 48.864 38.5339 48.9805 39.0063C49.1557 39.7174 49.4154 40.408 49.6407 41.1063C49.6923 41.2647 49.7462 41.4222 49.8261 41.5732C49.861 41.6387 49.8799 41.6295 49.8631 41.5579C49.8415 41.4693 49.821 41.3793 49.8 41.29C49.7825 41.2186 49.7914 41.2162 49.8176 41.2846C50.2538 42.408 50.6661 43.5395 51.4416 44.4896C51.4876 44.5469 51.5005 44.5385 51.468 44.4727C51.4532 44.4442 51.4389 44.4143 51.4233 44.3847C51.3901 44.3184 51.4073 44.3057 51.461 44.3565C51.8825 44.7548 52.2902 45.1415 52.7458 45.5719C52.7996 45.6232 52.8476 45.604 52.853 45.5301C52.8563 45.4858 52.8579 45.4477 52.8608 45.4095C52.865 45.3358 52.927 45.2934 52.9975 45.3145C53.1797 45.3677 53.3534 45.4129 53.5158 45.487C53.6977 45.5708 53.8753 45.6813 54.0577 45.8004C54.1198 45.8409 54.1644 45.8325 54.1576 45.7816C54.1508 45.7306 54.1693 45.6904 54.198 45.6957C54.2212 45.7005 54.2298 45.7055 54.2465 45.7161C55.1457 46.2667 55.9488 46.921 56.6299 47.744C57.0766 48.2859 57.6311 48.7677 58.2195 49.1511C58.44 49.295 58.6313 49.4721 58.8717 49.6017C58.9374 49.6368 58.9556 49.6131 58.91 49.5545C58.8446 49.4711 58.7791 49.3865 58.7131 49.3032C58.6675 49.2452 58.6393 49.1892 58.6499 49.1768C58.66 49.1657 58.7135 49.1964 58.7688 49.2451C58.9327 49.3904 59.1002 49.5401 59.2902 49.707C59.3456 49.7569 59.3713 49.7389 59.3479 49.6688C59.3455 49.6642 59.3443 49.6601 59.3432 49.656C59.3198 49.5859 59.3532 49.5577 59.4188 49.5923C59.8029 49.7973 60.172 49.9946 60.5673 50.2055C60.6322 50.2395 60.6816 50.2079 60.6761 50.1342C60.6673 49.9951 60.6598 49.8833 60.6529 49.7811C60.648 49.708 60.6665 49.6409 60.693 49.6337C60.7195 49.6265 60.7844 49.6605 60.8382 49.7119C60.8508 49.7237 60.8634 49.736 60.8759 49.7478C60.9292 49.7998 60.9799 49.837 60.9891 49.8327C60.9989 49.8284 60.9751 49.773 60.9379 49.709C60.8738 49.5992 60.8105 49.4899 60.7465 49.3801C60.7093 49.3162 60.6892 49.2566 60.702 49.2476C60.7147 49.238 60.7671 49.2737 60.8186 49.3266C60.9077 49.4184 60.9967 49.5097 61.0863 49.6008C61.1379 49.6537 61.1881 49.6916 61.1981 49.6847C61.2087 49.6772 61.1935 49.6177 61.1655 49.5494C61.0699 49.331 60.978 49.1126 60.878 48.8747Z" fill="#5CA94E"/>
</g>
<defs>
<clipPath id="clip0">
<rect width="56.8564" height="56.8564" fill="white" transform="translate(0.136353 7.57678) rotate(-7.58359)"/>
</clipPath>
</defs>
</svg>
