<svg width="60" height="60" viewBox="0 0 60 60" fill="none" xmlns="http://www.w3.org/2000/svg">
<g clip-path="url(#clip0)">
<path d="M58.0389 25.2973H56.7552C56.2245 25.2973 55.791 25.7295 55.791 26.2602V42.9854C55.791 43.5161 56.2226 43.9496 56.7552 43.9496H58.0389C58.5689 43.9496 59.0018 43.5167 59.0018 42.9854V26.2595C59.0018 25.7295 58.5695 25.2973 58.0389 25.2973Z" fill="#5CA94E"/>
<path d="M1.33155 24.4831C0.801533 24.4831 0.368652 24.9146 0.368652 25.446V43.8069C0.368652 44.3369 0.800881 44.7704 1.33155 44.7704H3.94904C4.47971 44.7704 4.91194 44.3382 4.91194 43.8069V25.4512C4.91194 24.9212 4.48036 24.4883 3.94904 24.4883H1.33155V24.4831Z" fill="#5CA94E"/>
<path d="M37.9308 47.7073C40.0783 46.8742 42.2127 46.0156 44.3556 45.1831C44.5466 45.1094 44.7689 45.084 44.9729 45.0788C46.5584 45.0722 48.1439 45.0722 49.7242 45.0722C51.3664 45.0722 52.4219 44.0161 52.4219 42.3563V36.9251C52.4219 36.5359 52.7354 36.2282 53.1188 36.2282L53.8033 36.2106C54.347 36.2106 54.3789 36 54.3959 35.6238L54.4096 32.4705C54.4096 32.1569 54.156 31.9026 53.8411 31.9026H53.107C52.7172 31.9026 52.4036 31.5877 52.4036 31.1985L52.4271 24.6134C52.446 23.6381 52.0516 22.966 51.3038 22.4282C50.0202 21.5024 46.2377 18.8178 45.6196 18.4227C45.1946 18.1443 44.7311 18.0335 44.2128 18.04L37.6889 18.0335C37.1328 18.0335 36.683 17.583 36.683 17.0276V16.8242C36.683 16.2629 37.1394 15.8059 37.7013 15.8059H43.6143C44.175 15.8059 44.6326 15.3495 44.6326 14.7876V13.6082C44.6326 13.0469 44.1756 12.5899 43.6143 12.5899H23.9828C23.4208 12.5899 22.9645 13.0463 22.9645 13.6082V14.7876C22.9645 15.3489 23.4208 15.8059 23.9828 15.8059H30.3821C30.9441 15.8059 31.4011 16.2629 31.4011 16.8242V17.0589C31.4011 17.6143 30.9506 18.0707 30.3873 18.0641L23.9261 18.04C22.6907 18.0029 21.6795 18.4227 20.7408 19.1014C19.3704 20.0949 18.0255 21.1197 16.6799 22.1446C16.3402 22.4034 15.9145 22.5455 15.4888 22.539C14.1934 22.5259 12.8968 22.5259 11.6007 22.539C9.98981 22.5514 8.94738 23.5879 8.93434 25.2054L8.95259 29.7043C8.95259 30.0864 8.64358 30.4012 8.25503 30.4012H7.65069C6.91597 30.4012 6.32336 30.9938 6.32336 31.7286V38.8574C6.32336 39.5915 6.91597 40.1834 7.65069 40.1834H8.23677C8.61946 40.1834 8.93368 40.4931 8.93368 40.881C8.93368 41.9045 8.92717 43.8121 8.93368 44.9158C8.93368 45.9413 8.91543 47.8664 10.7917 47.8664H37.11C37.3877 47.8677 37.6779 47.8123 37.9308 47.7073Z" fill="#5CA94E"/>
</g>
<defs>
<clipPath id="clip0">
<rect width="58.6331" height="58.6331" fill="white" transform="translate(0.368652 0.911255)"/>
</clipPath>
</defs>
</svg>
