<svg width="49" height="49" viewBox="0 0 49 49" fill="none" xmlns="http://www.w3.org/2000/svg">
<g clip-path="url(#clip0)">
<path d="M24.1913 0.353149C11.4511 0.353149 2.20386 8.75959 2.20386 20.3417C2.20386 26.2818 4.52978 33.1179 8.4253 38.628C12.8478 44.8817 18.4446 48.3257 24.1913 48.3257C29.938 48.3257 35.536 44.8817 39.9573 38.628C43.8528 33.1179 46.1787 26.2818 46.1787 20.3417C46.1787 8.75959 36.9315 0.353149 24.1913 0.353149V0.353149ZM38.1833 34.3337H34.1856V26.3383H30.1878V34.3337H26.1901V26.3383H22.1924V34.3337H18.1947V26.3383H12.1981C11.668 26.3383 11.1596 26.1277 10.7847 25.7528C10.4099 25.378 10.1993 24.8696 10.1993 24.3394V14.3451H14.197V22.3406H18.1947V14.3451H22.1924V22.3406H26.1901V14.3451H30.1878V22.3406H34.1856V14.3451H38.1833V34.3337Z" fill="#5CA94E"/>
</g>
<defs>
<clipPath id="clip0">
<rect width="47.9726" height="47.9726" fill="white" transform="translate(0.204956 0.353149)"/>
</clipPath>
</defs>
</svg>
