<svg width="50" height="51" viewBox="0 0 50 51" fill="none" xmlns="http://www.w3.org/2000/svg">
<g clip-path="url(#clip0)">
<path d="M45.7283 12.1559L45.7698 12.1144L35.4744 1.84675L32.5447 4.77639L38.3764 10.6081C35.7784 11.6031 33.9266 14.1044 33.9266 17.0479C33.9266 20.862 37.022 23.9575 40.8362 23.9575C41.8173 23.9575 42.7571 23.7502 43.6 23.3771V43.3044C43.6001 44.8246 42.3564 46.0683 40.8363 46.0683C39.3162 46.0683 38.0725 44.8246 38.0725 43.3045V30.8672C38.0725 27.8132 35.5989 25.3394 32.5447 25.3394H29.7809V5.99253C29.7808 2.93839 27.3072 0.464783 24.2532 0.464783H7.67008C4.61594 0.464783 2.14233 2.93839 2.14233 5.99253V50.2141H29.7808V29.4852H33.9266V43.3045C33.9266 47.1186 37.022 50.2141 40.8362 50.2141C44.6503 50.2141 47.7457 47.1186 47.7457 43.3045V17.0479C47.7459 15.1408 46.972 13.4135 45.7283 12.1559ZM24.2532 19.8117H7.67008V5.99253H24.2532V19.8117ZM40.8363 19.8117C39.3162 19.8117 38.0725 18.568 38.0725 17.0479C38.0725 15.5278 39.3162 14.2841 40.8363 14.2841C42.3564 14.2841 43.6001 15.5278 43.6001 17.0479C43.6001 18.568 42.3564 19.8117 40.8363 19.8117Z" fill="#5CA94E"/>
</g>
<defs>
<clipPath id="clip0">
<rect width="49.7493" height="49.7493" fill="white" transform="translate(0.0695801 0.464783)"/>
</clipPath>
</defs>
</svg>
