<svg width="49" height="49" viewBox="0 0 49 49" fill="none" xmlns="http://www.w3.org/2000/svg">
<g clip-path="url(#clip0)">
<path d="M46.7697 12.4001C47.9475 13.578 48.5364 14.988 48.5364 16.6296V38.9022C48.5364 40.5445 47.9475 41.9544 46.7697 43.132C45.5917 44.3101 44.1817 44.8987 42.5398 44.8987H40.8267V10.633H42.5398C44.1821 10.633 45.592 11.2221 46.7697 12.4001Z" fill="#5CA94E"/>
<path d="M14.2704 6.34987C14.2704 5.63594 14.5201 5.02929 15.0199 4.52952C15.5192 4.02976 16.1263 3.78006 16.84 3.78006H32.2598C32.9735 3.78006 33.5803 4.02976 34.0802 4.52952C34.5799 5.02901 34.8297 5.63585 34.8297 6.34987V10.6329H38.2563V44.8987H10.8433V10.6329H14.2704V6.34987ZM17.6967 10.6329H31.4032V7.2065H17.6967V10.6329Z" fill="#5CA94E"/>
<path d="M2.33039 12.4001C3.50836 11.2222 4.9184 10.633 6.56022 10.633H8.27368V44.8987H6.56022C4.9183 44.8987 3.50836 44.3102 2.33039 43.132C1.1528 41.9543 0.563673 40.5444 0.563673 38.9022V16.6296C0.563767 14.988 1.15289 13.578 2.33039 12.4001Z" fill="#5CA94E"/>
</g>
<defs>
<clipPath id="clip0">
<rect width="47.9726" height="47.9726" fill="white" transform="matrix(-1 0 0 1 48.5361 0.353149)"/>
</clipPath>
</defs>
</svg>
