<svg width="49" height="49" viewBox="0 0 49 49" fill="none" xmlns="http://www.w3.org/2000/svg">
<g clip-path="url(#clip0)">
<path d="M40.968 6.26846H40.7347V5.23279C40.7347 2.54208 38.5458 0.353149 35.8551 0.353149H28.3173C25.6266 0.353149 23.4377 2.54208 23.4377 5.23279V6.26846H20.5394C20.066 6.26846 19.6121 6.45651 19.2769 6.79118L9.59927 16.469C9.2646 16.804 9.07656 17.2579 9.07656 17.7316V45.7028C9.07656 47.1491 10.2531 48.3259 11.6997 48.3259H40.9682C42.4145 48.3259 43.5913 47.1494 43.5913 45.7028V8.89132C43.5908 7.44505 42.4142 6.26846 40.968 6.26846ZM27.0079 5.23279C27.0079 4.51108 27.5954 3.92362 28.3171 3.92362H35.8548C36.5765 3.92362 37.164 4.51108 37.164 5.23279V6.26846H27.0079V5.23279ZM9.35791 13.104C8.88447 13.104 8.4303 12.916 8.09539 12.581L6.72529 11.2107C6.02809 10.5135 6.02809 9.3831 6.72529 8.68614L11.9025 3.50897C12.2374 3.17429 12.6913 2.98625 13.165 2.98625C13.6384 2.98625 14.0926 3.17429 14.4275 3.5092L15.7976 4.87955C16.4948 5.57674 16.4948 6.70715 15.7976 7.40411L10.6204 12.5813C10.2853 12.916 9.83135 13.104 9.35791 13.104Z" fill="#5CA94E"/>
</g>
<defs>
<clipPath id="clip0">
<rect width="47.9726" height="47.9726" fill="white" transform="translate(0.9104 0.353149)"/>
</clipPath>
</defs>
</svg>
