<svg width="49" height="49" viewBox="0 0 49 49" fill="none" xmlns="http://www.w3.org/2000/svg">
<g clip-path="url(#clip0)">
<path d="M47.5959 5.6857C46.5339 3.56094 44.397 2.24039 42.02 2.24039H22.653C18.9446 2.24039 15.405 3.82929 12.9412 6.6012L3.55635 17.1577C1.43909 19.5381 0.273512 22.6038 0.281289 25.9183L1.95349 38.8172C2.1926 40.6657 3.05067 42.4108 4.36945 43.7285C5.97325 45.3321 8.10522 46.2154 10.3738 46.2154H44.2554C46.4607 46.2153 48.2538 44.4223 48.2538 42.2175V8.47316C48.2538 7.51081 48.0264 6.54658 47.5959 5.6857ZM8.04441 21.1407L17.4277 10.5853C18.7551 9.09297 20.6612 8.23696 22.6572 8.23696H42.0212C42.1139 8.23696 42.191 8.2838 42.2574 8.47316V24.2278H6.35787C6.54143 23.1698 7.05376 22.2573 8.04441 21.1407ZM43.2567 38.2198H7.27732C6.72488 38.2198 6.27786 37.7728 6.27786 37.2203C6.27786 36.6679 6.72488 36.221 7.27732 36.221H43.2567C43.8092 36.221 44.2562 36.668 44.2562 37.2204C44.2562 37.7729 43.8092 38.2198 43.2567 38.2198ZM43.2567 32.2232H37.2602C36.7077 32.2232 36.2607 31.7762 36.2607 31.2238C36.2607 30.6713 36.7077 30.2243 37.2602 30.2243H43.2567C43.8092 30.2243 44.2562 30.6713 44.2562 31.2238C44.2561 31.7763 43.8092 32.2232 43.2567 32.2232Z" fill="#5CA94E"/>
</g>
<defs>
<clipPath id="clip0">
<rect width="47.9726" height="47.9726" fill="white" transform="translate(0.28125 0.241547)"/>
</clipPath>
</defs>
</svg>
