<svg width="20" height="16" viewBox="0 0 20 16" fill="none" xmlns="http://www.w3.org/2000/svg">
<path d="M6.06055 5.50222C5.91918 5.36085 5.84849 5.19344 5.84849 4.99999C5.84849 4.80654 5.91918 4.63913 6.06055 4.49776C6.20192 4.35639 6.36933 4.28571 6.56278 4.28571H7.99135V2.85713C7.99135 2.66368 8.06203 2.49627 8.2034 2.3549C8.34477 2.21353 8.51218 2.14285 8.70564 2.14285C8.89909 2.14285 9.0665 2.21353 9.20787 2.3549C9.34924 2.49627 9.41992 2.66368 9.41992 2.85713V4.28571H10.8485C11.0419 4.28571 11.2094 4.35639 11.3507 4.49776C11.4921 4.63913 11.5628 4.80654 11.5628 4.99999C11.5628 5.19344 11.4921 5.36085 11.3507 5.50222C11.2094 5.64359 11.0419 5.71428 10.8485 5.71428H9.41992V7.14285C9.41992 7.3363 9.34924 7.50371 9.20787 7.64508C9.0665 7.78645 8.89909 7.85713 8.70564 7.85713C8.51218 7.85713 8.34477 7.78645 8.2034 7.64508C8.06203 7.50371 7.99135 7.3363 7.99135 7.14285V5.71428H6.56278C6.36933 5.71428 6.20192 5.64359 6.06055 5.50222ZM12.7012 13.2812C12.4184 13.5565 12.2771 13.8914 12.2771 14.2857C12.2771 14.6801 12.4184 15.0149 12.7012 15.2902C12.9765 15.5729 13.3113 15.7143 13.7056 15.7143C14.1 15.7143 14.4385 15.5729 14.7213 15.2902C14.9966 15.0149 15.1342 14.6801 15.1342 14.2857C15.1342 13.8914 14.9966 13.5565 14.7213 13.2812C14.4385 12.9985 14.1 12.8571 13.7056 12.8571C13.3113 12.8571 12.9765 12.9985 12.7012 13.2812ZM2.70117 13.2812C2.41843 13.5565 2.27706 13.8914 2.27706 14.2857C2.27706 14.6801 2.41843 15.0149 2.70117 15.2902C2.97647 15.5729 3.31129 15.7143 3.70564 15.7143C4.09998 15.7143 4.43852 15.5729 4.72126 15.2902C4.99656 15.0149 5.13421 14.6801 5.13421 14.2857C5.13421 13.8914 4.99656 13.5565 4.72126 13.2812C4.43852 12.9985 4.09998 12.8571 3.70564 12.8571C3.31129 12.8571 2.97647 12.9985 2.70117 13.2812ZM0.848493 2.14285V7.85713C0.848493 8.03571 0.908016 8.19568 1.02706 8.33704C1.14611 8.47097 1.29864 8.5491 1.48465 8.57142L13.1364 9.93303C13.129 9.98511 13.1141 10.067 13.0918 10.1786C13.062 10.2827 13.0397 10.3795 13.0248 10.4687C13.0025 10.558 12.9913 10.6399 12.9913 10.7143C12.9913 10.8333 13.0806 11.0714 13.2592 11.4286H2.99135C2.7979 11.4286 2.63049 11.4992 2.48912 11.6406C2.34775 11.782 2.27706 11.9494 2.27706 12.1428C2.27706 12.3363 2.34775 12.5037 2.48912 12.6451C2.63049 12.7864 2.7979 12.8571 2.99135 12.8571H14.4199C14.6134 12.8571 14.7808 12.7864 14.9222 12.6451C15.0635 12.5037 15.1342 12.3363 15.1342 12.1428C15.1342 12.0387 15.0933 11.8936 15.0114 11.7076C14.9296 11.5141 14.8217 11.2909 14.6878 11.0379C14.5464 10.785 14.4683 10.6436 14.4534 10.6138L16.4289 1.42856H18.7056C18.8991 1.42856 19.0665 1.35788 19.2079 1.21651C19.3492 1.07514 19.4199 0.907729 19.4199 0.714276C19.4199 0.520824 19.3492 0.353414 19.2079 0.212044C19.0665 0.0706753 18.8991 -9.05991e-06 18.7056 -9.05991e-06H15.8485C15.7294 -9.05991e-06 15.6253 0.0260326 15.536 0.0781159C15.4393 0.122758 15.3649 0.178562 15.3128 0.245526C15.2533 0.312491 15.2049 0.405497 15.1677 0.524544C15.123 0.636151 15.0933 0.732877 15.0784 0.814723C15.0635 0.896568 15.0449 1.00818 15.0226 1.14954C14.9928 1.28347 14.9742 1.37648 14.9668 1.42856H1.56278C1.36933 1.42856 1.20192 1.49925 1.06055 1.64062C0.919177 1.78198 0.848493 1.9494 0.848493 2.14285Z" fill="#5CA94E"/>
</svg>
