<svg width="19" height="13" viewBox="0 0 19 13" fill="none" xmlns="http://www.w3.org/2000/svg">
<path d="M0.654261 2.57365L2.50694 0.732134C2.64831 0.590765 2.81572 0.520081 3.00917 0.520081C3.20262 0.520081 3.37004 0.590765 3.5114 0.732134L9.43774 6.65847L15.3641 0.732134C15.5055 0.590765 15.6729 0.520081 15.8663 0.520081C16.0598 0.520081 16.2272 0.590765 16.3685 0.732134L18.2212 2.57365C18.3626 2.71502 18.4333 2.88243 18.4333 3.07588C18.4333 3.27678 18.3626 3.44791 18.2212 3.58928L9.93998 11.8594C9.79861 12.0007 9.6312 12.0714 9.43774 12.0714C9.24429 12.0714 9.07688 12.0007 8.93551 11.8594L0.654261 3.58928C0.512892 3.44791 0.442208 3.27678 0.442208 3.07588C0.442208 2.88243 0.512892 2.71502 0.654261 2.57365Z" fill="#5CA94E"/>
</svg>
