<svg width="14" height="14" viewBox="0 0 14 14" fill="none" xmlns="http://www.w3.org/2000/svg">
<path d="M13.7813 0.0859373C13.7031 0.0312498 13.6016 -9.53674e-07 13.5 -9.53674e-07C13.4141 -9.53674e-07 13.3281 0.0234367 13.25 0.0703119L0.25 7.57031C0.0859375 7.66406 -0.0078125 7.84375 0 8.03125C0.015625 8.22656 0.132813 8.39062 0.3125 8.46094L3.39844 9.72656L11.75 2.5L5 10.7734V13.5C5 13.7109 5.13281 13.8984 5.32813 13.9688C5.38281 13.9922 5.44531 14 5.5 14C5.64844 14 5.78906 13.9375 5.88281 13.8203L7.77344 11.5156L11.3125 12.9609C11.375 12.9844 11.4375 13 11.5 13C11.5859 13 11.6719 12.9766 11.7422 12.9375C11.875 12.8594 11.9688 12.7344 11.9922 12.5859L13.9922 0.585937C14.0234 0.390625 13.9453 0.203125 13.7813 0.0859373Z" fill="white"/>
</svg>
