<svg width="1439" height="140" viewBox="0 0 1439 140" fill="none" xmlns="http://www.w3.org/2000/svg">
<path d="M-10.306 116H14.642L38.942 24.794H82.682L58.22 116H83.33L113.786 2.59999H20.15L-10.306 116ZM110.561 116H135.509L144.743 81.656H166.289C197.231 81.656 221.369 65.618 221.369 37.43C221.369 27.548 218.453 19.934 212.621 14.102C204.359 5.84 193.181 2.59999 176.981 2.59999H141.017L110.561 116ZM150.575 59.786L159.809 25.118H176.009C183.461 25.118 188.159 26.738 191.561 30.14C193.991 32.57 195.287 35.81 195.287 39.536C195.287 52.334 184.109 59.786 167.585 59.786H150.575ZM220.512 116H306.048L312.042 93.806H251.13L257.61 69.83H310.26L316.254 47.96H263.604L269.76 24.794H329.7L335.694 2.59999H250.968L220.512 116ZM328.249 116H351.415L420.103 41.804L400.501 116H425.125L455.419 2.59999H432.091L363.403 76.796L383.167 2.59999H358.705L328.249 116ZM452.122 116H477.07L496.834 42.452L514.978 90.404H515.626L560.014 41.966L540.25 116H565.522L595.978 2.59999H567.142L524.86 50.552L508.498 2.59999H482.578L452.122 116ZM614.148 117.782C629.862 117.782 643.308 110.33 658.05 90.242L722.364 2.59999H694.014L651.246 61.568L636.504 2.59999H609.936L633.264 86.516L632.616 87.326C626.946 94.94 620.466 96.56 616.092 96.56C611.718 96.56 607.344 95.588 603.618 92.834L588.876 110.978C594.708 115.19 604.104 117.782 614.148 117.782ZM841.594 139.652H862.816L878.044 93.806H864.436L888.898 2.59999H863.95L839.488 93.806H801.256L825.718 2.59999H800.932L776.47 93.806H738.238L762.862 2.59999H737.914L707.62 116H848.074L841.594 139.652ZM886.231 116H971.767L977.761 93.806H916.849L923.329 69.83H975.979L981.973 47.96H929.323L935.479 24.794H995.419L1001.41 2.59999H916.687L886.231 116ZM1056.34 117.944C1075.29 117.944 1088.41 110.654 1099.27 100.61L1083.07 83.762C1074.64 90.566 1067.52 94.94 1056.5 94.94C1040.3 94.94 1028.8 83.924 1028.8 67.562C1028.8 43.424 1048.08 23.66 1068.81 23.66C1082.42 23.66 1090.03 29.816 1096.68 39.212L1117.25 24.794C1108.18 9.88999 1093.6 0.655998 1071.89 0.655998C1033.66 0.655998 1002.88 32.408 1002.88 68.534C1002.88 98.828 1025.4 117.944 1056.34 117.944ZM1135.33 116H1160.27L1184.57 25.604H1219.08L1225.24 2.59999H1131.28L1125.12 25.604H1159.63L1135.33 116ZM1211.97 116H1267.7C1299.13 116 1316.46 101.744 1316.46 81.494C1316.46 69.83 1309.98 62.864 1300.59 58.49C1315.17 55.25 1324.89 45.53 1324.89 30.464C1324.89 15.236 1313.22 2.59999 1286.49 2.59999H1242.43L1211.97 116ZM1242.1 94.13L1248.75 69.182H1276.12C1286.33 69.182 1291.68 73.232 1291.68 79.874C1291.68 88.622 1283.9 94.13 1271.43 94.13H1242.1ZM1254.42 48.446L1260.73 24.47H1284.22C1295.24 24.47 1299.94 28.844 1299.94 34.676C1299.94 44.072 1292.32 48.446 1279.53 48.446H1254.42ZM1316.91 116H1343.81L1360.98 90.566H1408.93L1412.49 116H1438.09L1420.11 1.78999H1396.13L1316.91 116ZM1375.88 68.534L1400.83 31.112L1406.01 68.534H1375.88Z" fill="url(#paint0_linear)" fill-opacity="0.08"/>
<defs>
<linearGradient id="paint0_linear" x1="719" y1="-8" x2="719" y2="154" gradientUnits="userSpaceOnUse">
<stop/>
<stop offset="0.802083" stop-opacity="0"/>
</linearGradient>
</defs>
</svg>
