<svg width="730" height="139" viewBox="0 0 730 139" fill="none" xmlns="http://www.w3.org/2000/svg">
<path d="M-6.944 116H51.862C87.016 116 103.378 101.096 103.378 81.494C103.378 69.83 96.25 62.378 86.206 58.814C102.082 54.926 111.64 44.234 111.64 29.816C111.64 15.398 101.596 2.59999 70.654 2.59999H23.512L-6.944 116ZM30.478 90.728L36.148 69.83H57.856C67.09 69.83 71.788 72.908 71.788 78.74C71.788 85.868 65.146 90.728 54.292 90.728H30.478ZM42.142 47.798L47.326 27.872H66.928C76.486 27.872 80.536 31.112 80.536 36.296C80.536 43.424 74.542 47.798 63.364 47.798H42.142ZM108.702 116H162.162C193.104 116 216.432 99.962 216.432 70.64C216.432 52.334 201.042 38.24 174.96 38.24H160.866L170.424 2.59999H138.996L108.702 116ZM147.096 89.594L154.386 62.864H169.938C179.334 62.864 184.194 68.21 184.194 74.042C184.194 85.22 174.312 89.594 163.458 89.594H147.096ZM217.728 116H249.156L279.45 2.59999H248.022L217.728 116ZM268.646 116H300.074L323.078 30.14H371.678L378.968 2.59999H298.94L268.646 116ZM422.665 118.106C462.031 118.106 490.219 85.868 490.219 51.362C490.219 22.526 468.349 0.49399 436.111 0.49399C396.745 0.49399 368.557 32.732 368.557 67.238C368.557 96.074 390.427 118.106 422.665 118.106ZM425.419 89.918C409.381 89.918 400.633 79.226 400.633 64.808C400.633 47.96 413.593 28.682 433.357 28.682C449.395 28.682 458.143 39.374 458.143 53.792C458.143 70.64 445.345 89.918 425.419 89.918ZM474.01 138.68H502.036L510.298 116H572.182L566.026 138.68H592.594L609.604 88.46H596.806L619.81 2.59999H531.844L528.118 16.694C516.778 59.3 507.706 73.556 496.528 88.46H487.294L474.01 138.68ZM530.224 88.46C538.486 76.472 546.424 58.328 551.77 40.508L555.172 29.33H581.416L565.378 88.46H530.224ZM602.535 116H636.717L650.325 95.75H694.065L696.819 116H729.867L712.209 1.78999H681.429L602.535 116ZM666.201 71.288L687.423 38.726L691.473 71.288H666.201Z" fill="url(#paint0_linear)" fill-opacity="0.07"/>
<defs>
<linearGradient id="paint0_linear" x1="389" y1="-8" x2="389" y2="154" gradientUnits="userSpaceOnUse">
<stop/>
<stop offset="0.875" stop-opacity="0"/>
</linearGradient>
</defs>
</svg>
