<svg width="1440" height="1220" viewBox="0 0 1440 1220" fill="none" xmlns="http://www.w3.org/2000/svg">
<path d="M-438.033 1199H-416.933L-408.533 1186.5H-381.533L-379.833 1199H-359.433L-370.333 1128.5H-389.333L-438.033 1199ZM-398.733 1171.4L-385.633 1151.3L-383.133 1171.4H-398.733ZM-359.294 1199H-339.794L-334.394 1178.9H-322.894C-302.194 1178.9 -288.094 1168.1 -288.094 1150.7C-288.094 1144.9 -289.894 1140.1 -293.594 1136.4C-298.694 1131.3 -306.194 1129 -317.594 1129H-340.494L-359.294 1199ZM-330.394 1163.8L-325.494 1145.3H-318.294C-314.694 1145.3 -311.894 1146.1 -309.994 1148C-308.694 1149.3 -307.994 1151 -307.994 1152.9C-307.994 1159.5 -313.494 1163.8 -323.094 1163.8H-330.394ZM-297.106 1199H-240.506L-236.106 1182.5H-273.506L-270.506 1171.4H-237.106L-233.006 1156.1H-266.406L-263.506 1145.5H-226.706L-222.206 1129H-278.306L-297.106 1199ZM-235.212 1199H-215.712L-208.612 1172.4H-183.912L-191.112 1199H-171.612L-152.812 1129H-172.312L-179.312 1155.2H-204.012L-196.912 1129H-216.412L-235.212 1199ZM-172.428 1213H-155.128L-150.028 1199H-111.828L-115.628 1213H-99.2281L-88.7281 1182H-96.6281L-82.4281 1129H-136.728L-139.028 1137.7C-146.028 1164 -151.628 1172.8 -158.528 1182H-164.228L-172.428 1213ZM-137.728 1182C-132.628 1174.6 -127.728 1163.4 -124.428 1152.4L-122.328 1145.5H-106.128L-116.028 1182H-137.728ZM-98.0914 1199H-76.9914L-68.5914 1186.5H-41.5914L-39.8914 1199H-19.4914L-30.3914 1128.5H-49.3914L-98.0914 1199ZM-58.7914 1171.4L-45.6914 1151.3L-43.1914 1171.4H-58.7914ZM-2.81797 1199H18.282L26.682 1186.5H53.682L55.382 1199H75.782L64.882 1128.5H45.882L-2.81797 1199ZM36.482 1171.4L49.582 1151.3L52.082 1171.4H36.482ZM75.9211 1199H112.221C133.921 1199 144.021 1189.8 144.021 1177.7C144.021 1170.5 139.621 1165.9 133.421 1163.7C143.221 1161.3 149.121 1154.7 149.121 1145.8C149.121 1136.9 142.921 1129 123.821 1129H94.7211L75.9211 1199ZM99.0211 1183.4L102.521 1170.5H115.921C121.621 1170.5 124.521 1172.4 124.521 1176C124.521 1180.4 120.421 1183.4 113.721 1183.4H99.0211ZM106.221 1156.9L109.421 1144.6H121.521C127.421 1144.6 129.921 1146.6 129.921 1149.8C129.921 1154.2 126.221 1156.9 119.321 1156.9H106.221ZM154.604 1199H174.104L188.304 1146H209.304L213.804 1129H152.504L147.904 1146H168.904L154.604 1199ZM236.58 1200.3C260.88 1200.3 278.28 1180.4 278.28 1159.1C278.28 1141.3 264.78 1127.7 244.88 1127.7C220.58 1127.7 203.18 1147.6 203.18 1168.9C203.18 1186.7 216.68 1200.3 236.58 1200.3ZM238.28 1182.9C228.38 1182.9 222.98 1176.3 222.98 1167.4C222.98 1157 230.98 1145.1 243.18 1145.1C253.08 1145.1 258.48 1151.7 258.48 1160.6C258.48 1171 250.58 1182.9 238.28 1182.9ZM335.263 1200.4C348.563 1200.4 357.763 1195 364.563 1187.3L351.463 1175.7C346.963 1180.2 342.563 1182.8 336.463 1182.8C328.363 1182.8 322.463 1177.3 322.463 1168.4C322.463 1156.2 331.763 1145.3 343.363 1145.3C350.263 1145.3 354.663 1148.6 357.463 1154.3L374.263 1145.3C370.063 1134.5 360.163 1127.6 345.863 1127.6C318.963 1127.6 302.163 1149.1 302.163 1169.8C302.163 1188.5 315.863 1200.4 335.263 1200.4ZM386.253 1199H422.553C444.253 1199 454.353 1189.8 454.353 1177.7C454.353 1170.5 449.953 1165.9 443.753 1163.7C453.553 1161.3 459.453 1154.7 459.453 1145.8C459.453 1136.9 453.253 1129 434.153 1129H405.053L386.253 1199ZM409.353 1183.4L412.853 1170.5H426.253C431.953 1170.5 434.853 1172.4 434.853 1176C434.853 1180.4 430.753 1183.4 424.053 1183.4H409.353ZM416.553 1156.9L419.753 1144.6H431.853C437.753 1144.6 440.253 1146.6 440.253 1149.8C440.253 1154.2 436.553 1156.9 429.653 1156.9H416.553ZM452.64 1199H485.64C504.74 1199 519.14 1189.1 519.14 1171C519.14 1159.7 509.64 1151 493.54 1151H484.84L490.74 1129H471.34L452.64 1199ZM476.34 1182.7L480.84 1166.2H490.44C496.24 1166.2 499.24 1169.5 499.24 1173.1C499.24 1180 493.14 1182.7 486.44 1182.7H476.34ZM519.94 1199H539.34L558.04 1129H538.64L519.94 1199ZM546.37 1199H565.87L570.07 1183.1L582.17 1172L592.27 1199H613.27L597.67 1159.7L630.67 1129H605.97L577.07 1157L584.67 1129H565.17L546.37 1199ZM630.038 1200C640.838 1200 648.938 1195.1 658.438 1182.4L698.538 1129H676.638L652.638 1162.2L645.538 1129H624.938L638.438 1180.7C635.638 1183.1 633.338 1183.7 631.638 1183.7C629.538 1183.7 626.538 1183.1 624.338 1181.3L612.938 1195.3C616.938 1198.1 623.338 1200 630.038 1200ZM679.827 1199H699.327L713.527 1146H737.227L722.927 1199H742.427L761.227 1129H698.627L679.827 1199ZM789.334 1200.3C813.634 1200.3 831.034 1180.4 831.034 1159.1C831.034 1141.3 817.534 1127.7 797.634 1127.7C773.334 1127.7 755.934 1147.6 755.934 1168.9C755.934 1186.7 769.434 1200.3 789.334 1200.3ZM791.034 1182.9C781.134 1182.9 775.734 1176.3 775.734 1167.4C775.734 1157 783.734 1145.1 795.934 1145.1C805.834 1145.1 811.234 1151.7 811.234 1160.6C811.234 1171 803.334 1182.9 791.034 1182.9ZM825.882 1199H845.082L855.782 1159L866.082 1186.2H866.482L891.582 1158.8L880.882 1199H900.382L919.182 1129H897.382L873.582 1156.1L864.282 1129H844.682L825.882 1199ZM930.237 1199H966.538C988.238 1199 998.338 1189.8 998.338 1177.7C998.338 1170.5 993.938 1165.9 987.738 1163.7C997.538 1161.3 1003.44 1154.7 1003.44 1145.8C1003.44 1136.9 997.238 1129 978.138 1129H949.038L930.237 1199ZM953.338 1183.4L956.838 1170.5H970.238C975.938 1170.5 978.838 1172.4 978.838 1176C978.838 1180.4 974.738 1183.4 968.038 1183.4H953.338ZM960.538 1156.9L963.738 1144.6H975.838C981.738 1144.6 984.237 1146.6 984.237 1149.8C984.237 1154.2 980.538 1156.9 973.638 1156.9H960.538ZM1019.36 1199H1038.56L1049.26 1159L1059.56 1186.2H1059.96L1085.06 1158.8L1074.36 1199H1093.86L1112.66 1129H1090.86L1067.06 1156.1L1057.76 1129H1038.16L1019.36 1199ZM1140.78 1200.3C1165.08 1200.3 1182.48 1180.4 1182.48 1159.1C1182.48 1141.3 1168.98 1127.7 1149.08 1127.7C1124.78 1127.7 1107.38 1147.6 1107.38 1168.9C1107.38 1186.7 1120.88 1200.3 1140.78 1200.3ZM1142.48 1182.9C1132.58 1182.9 1127.18 1176.3 1127.18 1167.4C1127.18 1157 1135.18 1145.1 1147.38 1145.1C1157.28 1145.1 1162.68 1151.7 1162.68 1160.6C1162.68 1171 1154.78 1182.9 1142.48 1182.9ZM1216.73 1200.4C1230.03 1200.4 1239.23 1195 1246.03 1187.3L1232.93 1175.7C1228.43 1180.2 1224.03 1182.8 1217.93 1182.8C1209.83 1182.8 1203.93 1177.3 1203.93 1168.4C1203.93 1156.2 1213.23 1145.3 1224.83 1145.3C1231.73 1145.3 1236.13 1148.6 1238.93 1154.3L1255.73 1145.3C1251.53 1134.5 1241.63 1127.6 1227.33 1127.6C1200.43 1127.6 1183.63 1149.1 1183.63 1169.8C1183.63 1188.5 1197.33 1200.4 1216.73 1200.4ZM1244.98 1199H1264.48L1268.68 1183.1L1280.78 1172L1290.88 1199H1311.88L1296.28 1159.7L1329.28 1129H1304.58L1275.68 1157L1283.28 1129H1263.78L1244.98 1199ZM1312.15 1199H1348.45C1370.15 1199 1380.25 1189.8 1380.25 1177.7C1380.25 1170.5 1375.85 1165.9 1369.65 1163.7C1379.45 1161.3 1385.35 1154.7 1385.35 1145.8C1385.35 1136.9 1379.15 1129 1360.05 1129H1330.95L1312.15 1199ZM1335.25 1183.4L1338.75 1170.5H1352.15C1357.85 1170.5 1360.75 1172.4 1360.75 1176C1360.75 1180.4 1356.65 1183.4 1349.95 1183.4H1335.25ZM1342.45 1156.9L1345.65 1144.6H1357.75C1363.65 1144.6 1366.15 1146.6 1366.15 1149.8C1366.15 1154.2 1362.45 1156.9 1355.55 1156.9H1342.45ZM1378.54 1199H1435.14L1439.54 1182.5H1402.14L1405.14 1171.4H1438.54L1442.64 1156.1H1409.24L1412.14 1145.5H1448.94L1453.44 1129H1397.34L1378.54 1199Z" fill="url(#paint0_linear)" fill-opacity="0.04"/>
<path d="M-438.033 825H-416.933L-408.533 812.5H-381.533L-379.833 825H-359.433L-370.333 754.5H-389.333L-438.033 825ZM-398.733 797.4L-385.633 777.3L-383.133 797.4H-398.733ZM-359.294 825H-339.794L-334.394 804.9H-322.894C-302.194 804.9 -288.094 794.1 -288.094 776.7C-288.094 770.9 -289.894 766.1 -293.594 762.4C-298.694 757.3 -306.194 755 -317.594 755H-340.494L-359.294 825ZM-330.394 789.8L-325.494 771.3H-318.294C-314.694 771.3 -311.894 772.1 -309.994 774C-308.694 775.3 -307.994 777 -307.994 778.9C-307.994 785.5 -313.494 789.8 -323.094 789.8H-330.394ZM-297.106 825H-240.506L-236.106 808.5H-273.506L-270.506 797.4H-237.106L-233.006 782.1H-266.406L-263.506 771.5H-226.706L-222.206 755H-278.306L-297.106 825ZM-235.212 825H-215.712L-208.612 798.4H-183.912L-191.112 825H-171.612L-152.812 755H-172.312L-179.312 781.2H-204.012L-196.912 755H-216.412L-235.212 825ZM-172.428 839H-155.128L-150.028 825H-111.828L-115.628 839H-99.2281L-88.7281 808H-96.6281L-82.4281 755H-136.728L-139.028 763.7C-146.028 790 -151.628 798.8 -158.528 808H-164.228L-172.428 839ZM-137.728 808C-132.628 800.6 -127.728 789.4 -124.428 778.4L-122.328 771.5H-106.128L-116.028 808H-137.728ZM-98.0914 825H-76.9914L-68.5914 812.5H-41.5914L-39.8914 825H-19.4914L-30.3914 754.5H-49.3914L-98.0914 825ZM-58.7914 797.4L-45.6914 777.3L-43.1914 797.4H-58.7914ZM-2.81797 825H18.282L26.682 812.5H53.682L55.382 825H75.782L64.882 754.5H45.882L-2.81797 825ZM36.482 797.4L49.582 777.3L52.082 797.4H36.482ZM75.9211 825H112.221C133.921 825 144.021 815.8 144.021 803.7C144.021 796.5 139.621 791.9 133.421 789.7C143.221 787.3 149.121 780.7 149.121 771.8C149.121 762.9 142.921 755 123.821 755H94.7211L75.9211 825ZM99.0211 809.4L102.521 796.5H115.921C121.621 796.5 124.521 798.4 124.521 802C124.521 806.4 120.421 809.4 113.721 809.4H99.0211ZM106.221 782.9L109.421 770.6H121.521C127.421 770.6 129.921 772.6 129.921 775.8C129.921 780.2 126.221 782.9 119.321 782.9H106.221ZM154.604 825H174.104L188.304 772H209.304L213.804 755H152.504L147.904 772H168.904L154.604 825ZM236.58 826.3C260.88 826.3 278.28 806.4 278.28 785.1C278.28 767.3 264.78 753.7 244.88 753.7C220.58 753.7 203.18 773.6 203.18 794.9C203.18 812.7 216.68 826.3 236.58 826.3ZM238.28 808.9C228.38 808.9 222.98 802.3 222.98 793.4C222.98 783 230.98 771.1 243.18 771.1C253.08 771.1 258.48 777.7 258.48 786.6C258.48 797 250.58 808.9 238.28 808.9ZM335.263 826.4C348.563 826.4 357.763 821 364.563 813.3L351.463 801.7C346.963 806.2 342.563 808.8 336.463 808.8C328.363 808.8 322.463 803.3 322.463 794.4C322.463 782.2 331.763 771.3 343.363 771.3C350.263 771.3 354.663 774.6 357.463 780.3L374.263 771.3C370.063 760.5 360.163 753.6 345.863 753.6C318.963 753.6 302.163 775.1 302.163 795.8C302.163 814.5 315.863 826.4 335.263 826.4ZM386.253 825H422.553C444.253 825 454.353 815.8 454.353 803.7C454.353 796.5 449.953 791.9 443.753 789.7C453.553 787.3 459.453 780.7 459.453 771.8C459.453 762.9 453.253 755 434.153 755H405.053L386.253 825ZM409.353 809.4L412.853 796.5H426.253C431.953 796.5 434.853 798.4 434.853 802C434.853 806.4 430.753 809.4 424.053 809.4H409.353ZM416.553 782.9L419.753 770.6H431.853C437.753 770.6 440.253 772.6 440.253 775.8C440.253 780.2 436.553 782.9 429.653 782.9H416.553ZM452.64 825H485.64C504.74 825 519.14 815.1 519.14 797C519.14 785.7 509.64 777 493.54 777H484.84L490.74 755H471.34L452.64 825ZM476.34 808.7L480.84 792.2H490.44C496.24 792.2 499.24 795.5 499.24 799.1C499.24 806 493.14 808.7 486.44 808.7H476.34ZM519.94 825H539.34L558.04 755H538.64L519.94 825ZM546.37 825H565.87L570.07 809.1L582.17 798L592.27 825H613.27L597.67 785.7L630.67 755H605.97L577.07 783L584.67 755H565.17L546.37 825ZM630.038 826C640.838 826 648.938 821.1 658.438 808.4L698.538 755H676.638L652.638 788.2L645.538 755H624.938L638.438 806.7C635.638 809.1 633.338 809.7 631.638 809.7C629.538 809.7 626.538 809.1 624.338 807.3L612.938 821.3C616.938 824.1 623.338 826 630.038 826ZM679.827 825H699.327L713.527 772H737.227L722.927 825H742.427L761.227 755H698.627L679.827 825ZM789.334 826.3C813.634 826.3 831.034 806.4 831.034 785.1C831.034 767.3 817.534 753.7 797.634 753.7C773.334 753.7 755.934 773.6 755.934 794.9C755.934 812.7 769.434 826.3 789.334 826.3ZM791.034 808.9C781.134 808.9 775.734 802.3 775.734 793.4C775.734 783 783.734 771.1 795.934 771.1C805.834 771.1 811.234 777.7 811.234 786.6C811.234 797 803.334 808.9 791.034 808.9ZM825.882 825H845.082L855.782 785L866.082 812.2H866.482L891.582 784.8L880.882 825H900.382L919.182 755H897.382L873.582 782.1L864.282 755H844.682L825.882 825ZM930.237 825H966.538C988.238 825 998.338 815.8 998.338 803.7C998.338 796.5 993.938 791.9 987.738 789.7C997.538 787.3 1003.44 780.7 1003.44 771.8C1003.44 762.9 997.238 755 978.138 755H949.038L930.237 825ZM953.338 809.4L956.838 796.5H970.238C975.938 796.5 978.838 798.4 978.838 802C978.838 806.4 974.738 809.4 968.038 809.4H953.338ZM960.538 782.9L963.738 770.6H975.838C981.738 770.6 984.237 772.6 984.237 775.8C984.237 780.2 980.538 782.9 973.638 782.9H960.538ZM1019.36 825H1038.56L1049.26 785L1059.56 812.2H1059.96L1085.06 784.8L1074.36 825H1093.86L1112.66 755H1090.86L1067.06 782.1L1057.76 755H1038.16L1019.36 825ZM1140.78 826.3C1165.08 826.3 1182.48 806.4 1182.48 785.1C1182.48 767.3 1168.98 753.7 1149.08 753.7C1124.78 753.7 1107.38 773.6 1107.38 794.9C1107.38 812.7 1120.88 826.3 1140.78 826.3ZM1142.48 808.9C1132.58 808.9 1127.18 802.3 1127.18 793.4C1127.18 783 1135.18 771.1 1147.38 771.1C1157.28 771.1 1162.68 777.7 1162.68 786.6C1162.68 797 1154.78 808.9 1142.48 808.9ZM1216.73 826.4C1230.03 826.4 1239.23 821 1246.03 813.3L1232.93 801.7C1228.43 806.2 1224.03 808.8 1217.93 808.8C1209.83 808.8 1203.93 803.3 1203.93 794.4C1203.93 782.2 1213.23 771.3 1224.83 771.3C1231.73 771.3 1236.13 774.6 1238.93 780.3L1255.73 771.3C1251.53 760.5 1241.63 753.6 1227.33 753.6C1200.43 753.6 1183.63 775.1 1183.63 795.8C1183.63 814.5 1197.33 826.4 1216.73 826.4ZM1244.98 825H1264.48L1268.68 809.1L1280.78 798L1290.88 825H1311.88L1296.28 785.7L1329.28 755H1304.58L1275.68 783L1283.28 755H1263.78L1244.98 825ZM1312.15 825H1348.45C1370.15 825 1380.25 815.8 1380.25 803.7C1380.25 796.5 1375.85 791.9 1369.65 789.7C1379.45 787.3 1385.35 780.7 1385.35 771.8C1385.35 762.9 1379.15 755 1360.05 755H1330.95L1312.15 825ZM1335.25 809.4L1338.75 796.5H1352.15C1357.85 796.5 1360.75 798.4 1360.75 802C1360.75 806.4 1356.65 809.4 1349.95 809.4H1335.25ZM1342.45 782.9L1345.65 770.6H1357.75C1363.65 770.6 1366.15 772.6 1366.15 775.8C1366.15 780.2 1362.45 782.9 1355.55 782.9H1342.45ZM1378.54 825H1435.14L1439.54 808.5H1402.14L1405.14 797.4H1438.54L1442.64 782.1H1409.24L1412.14 771.5H1448.94L1453.44 755H1397.34L1378.54 825Z" fill="url(#paint1_linear)" fill-opacity="0.04"/>
<path d="M-438.033 451H-416.933L-408.533 438.5H-381.533L-379.833 451H-359.433L-370.333 380.5H-389.333L-438.033 451ZM-398.733 423.4L-385.633 403.3L-383.133 423.4H-398.733ZM-359.294 451H-339.794L-334.394 430.9H-322.894C-302.194 430.9 -288.094 420.1 -288.094 402.7C-288.094 396.9 -289.894 392.1 -293.594 388.4C-298.694 383.3 -306.194 381 -317.594 381H-340.494L-359.294 451ZM-330.394 415.8L-325.494 397.3H-318.294C-314.694 397.3 -311.894 398.1 -309.994 400C-308.694 401.3 -307.994 403 -307.994 404.9C-307.994 411.5 -313.494 415.8 -323.094 415.8H-330.394ZM-297.106 451H-240.506L-236.106 434.5H-273.506L-270.506 423.4H-237.106L-233.006 408.1H-266.406L-263.506 397.5H-226.706L-222.206 381H-278.306L-297.106 451ZM-235.212 451H-215.712L-208.612 424.4H-183.912L-191.112 451H-171.612L-152.812 381H-172.312L-179.312 407.2H-204.012L-196.912 381H-216.412L-235.212 451ZM-172.428 465H-155.128L-150.028 451H-111.828L-115.628 465H-99.2281L-88.7281 434H-96.6281L-82.4281 381H-136.728L-139.028 389.7C-146.028 416 -151.628 424.8 -158.528 434H-164.228L-172.428 465ZM-137.728 434C-132.628 426.6 -127.728 415.4 -124.428 404.4L-122.328 397.5H-106.128L-116.028 434H-137.728ZM-98.0914 451H-76.9914L-68.5914 438.5H-41.5914L-39.8914 451H-19.4914L-30.3914 380.5H-49.3914L-98.0914 451ZM-58.7914 423.4L-45.6914 403.3L-43.1914 423.4H-58.7914ZM-2.81797 451H18.282L26.682 438.5H53.682L55.382 451H75.782L64.882 380.5H45.882L-2.81797 451ZM36.482 423.4L49.582 403.3L52.082 423.4H36.482ZM75.9211 451H112.221C133.921 451 144.021 441.8 144.021 429.7C144.021 422.5 139.621 417.9 133.421 415.7C143.221 413.3 149.121 406.7 149.121 397.8C149.121 388.9 142.921 381 123.821 381H94.7211L75.9211 451ZM99.0211 435.4L102.521 422.5H115.921C121.621 422.5 124.521 424.4 124.521 428C124.521 432.4 120.421 435.4 113.721 435.4H99.0211ZM106.221 408.9L109.421 396.6H121.521C127.421 396.6 129.921 398.6 129.921 401.8C129.921 406.2 126.221 408.9 119.321 408.9H106.221ZM154.604 451H174.104L188.304 398H209.304L213.804 381H152.504L147.904 398H168.904L154.604 451ZM236.58 452.3C260.88 452.3 278.28 432.4 278.28 411.1C278.28 393.3 264.78 379.7 244.88 379.7C220.58 379.7 203.18 399.6 203.18 420.9C203.18 438.7 216.68 452.3 236.58 452.3ZM238.28 434.9C228.38 434.9 222.98 428.3 222.98 419.4C222.98 409 230.98 397.1 243.18 397.1C253.08 397.1 258.48 403.7 258.48 412.6C258.48 423 250.58 434.9 238.28 434.9ZM335.263 452.4C348.563 452.4 357.763 447 364.563 439.3L351.463 427.7C346.963 432.2 342.563 434.8 336.463 434.8C328.363 434.8 322.463 429.3 322.463 420.4C322.463 408.2 331.763 397.3 343.363 397.3C350.263 397.3 354.663 400.6 357.463 406.3L374.263 397.3C370.063 386.5 360.163 379.6 345.863 379.6C318.963 379.6 302.163 401.1 302.163 421.8C302.163 440.5 315.863 452.4 335.263 452.4ZM386.253 451H422.553C444.253 451 454.353 441.8 454.353 429.7C454.353 422.5 449.953 417.9 443.753 415.7C453.553 413.3 459.453 406.7 459.453 397.8C459.453 388.9 453.253 381 434.153 381H405.053L386.253 451ZM409.353 435.4L412.853 422.5H426.253C431.953 422.5 434.853 424.4 434.853 428C434.853 432.4 430.753 435.4 424.053 435.4H409.353ZM416.553 408.9L419.753 396.6H431.853C437.753 396.6 440.253 398.6 440.253 401.8C440.253 406.2 436.553 408.9 429.653 408.9H416.553ZM452.64 451H485.64C504.74 451 519.14 441.1 519.14 423C519.14 411.7 509.64 403 493.54 403H484.84L490.74 381H471.34L452.64 451ZM476.34 434.7L480.84 418.2H490.44C496.24 418.2 499.24 421.5 499.24 425.1C499.24 432 493.14 434.7 486.44 434.7H476.34ZM519.94 451H539.34L558.04 381H538.64L519.94 451ZM546.37 451H565.87L570.07 435.1L582.17 424L592.27 451H613.27L597.67 411.7L630.67 381H605.97L577.07 409L584.67 381H565.17L546.37 451ZM630.038 452C640.838 452 648.938 447.1 658.438 434.4L698.538 381H676.638L652.638 414.2L645.538 381H624.938L638.438 432.7C635.638 435.1 633.338 435.7 631.638 435.7C629.538 435.7 626.538 435.1 624.338 433.3L612.938 447.3C616.938 450.1 623.338 452 630.038 452ZM679.827 451H699.327L713.527 398H737.227L722.927 451H742.427L761.227 381H698.627L679.827 451ZM789.334 452.3C813.634 452.3 831.034 432.4 831.034 411.1C831.034 393.3 817.534 379.7 797.634 379.7C773.334 379.7 755.934 399.6 755.934 420.9C755.934 438.7 769.434 452.3 789.334 452.3ZM791.034 434.9C781.134 434.9 775.734 428.3 775.734 419.4C775.734 409 783.734 397.1 795.934 397.1C805.834 397.1 811.234 403.7 811.234 412.6C811.234 423 803.334 434.9 791.034 434.9ZM825.882 451H845.082L855.782 411L866.082 438.2H866.482L891.582 410.8L880.882 451H900.382L919.182 381H897.382L873.582 408.1L864.282 381H844.682L825.882 451ZM930.237 451H966.538C988.238 451 998.338 441.8 998.338 429.7C998.338 422.5 993.938 417.9 987.738 415.7C997.538 413.3 1003.44 406.7 1003.44 397.8C1003.44 388.9 997.238 381 978.138 381H949.038L930.237 451ZM953.338 435.4L956.838 422.5H970.238C975.938 422.5 978.838 424.4 978.838 428C978.838 432.4 974.738 435.4 968.038 435.4H953.338ZM960.538 408.9L963.738 396.6H975.838C981.738 396.6 984.237 398.6 984.237 401.8C984.237 406.2 980.538 408.9 973.638 408.9H960.538ZM1019.36 451H1038.56L1049.26 411L1059.56 438.2H1059.96L1085.06 410.8L1074.36 451H1093.86L1112.66 381H1090.86L1067.06 408.1L1057.76 381H1038.16L1019.36 451ZM1140.78 452.3C1165.08 452.3 1182.48 432.4 1182.48 411.1C1182.48 393.3 1168.98 379.7 1149.08 379.7C1124.78 379.7 1107.38 399.6 1107.38 420.9C1107.38 438.7 1120.88 452.3 1140.78 452.3ZM1142.48 434.9C1132.58 434.9 1127.18 428.3 1127.18 419.4C1127.18 409 1135.18 397.1 1147.38 397.1C1157.28 397.1 1162.68 403.7 1162.68 412.6C1162.68 423 1154.78 434.9 1142.48 434.9ZM1216.73 452.4C1230.03 452.4 1239.23 447 1246.03 439.3L1232.93 427.7C1228.43 432.2 1224.03 434.8 1217.93 434.8C1209.83 434.8 1203.93 429.3 1203.93 420.4C1203.93 408.2 1213.23 397.3 1224.83 397.3C1231.73 397.3 1236.13 400.6 1238.93 406.3L1255.73 397.3C1251.53 386.5 1241.63 379.6 1227.33 379.6C1200.43 379.6 1183.63 401.1 1183.63 421.8C1183.63 440.5 1197.33 452.4 1216.73 452.4ZM1244.98 451H1264.48L1268.68 435.1L1280.78 424L1290.88 451H1311.88L1296.28 411.7L1329.28 381H1304.58L1275.68 409L1283.28 381H1263.78L1244.98 451ZM1312.15 451H1348.45C1370.15 451 1380.25 441.8 1380.25 429.7C1380.25 422.5 1375.85 417.9 1369.65 415.7C1379.45 413.3 1385.35 406.7 1385.35 397.8C1385.35 388.9 1379.15 381 1360.05 381H1330.95L1312.15 451ZM1335.25 435.4L1338.75 422.5H1352.15C1357.85 422.5 1360.75 424.4 1360.75 428C1360.75 432.4 1356.65 435.4 1349.95 435.4H1335.25ZM1342.45 408.9L1345.65 396.6H1357.75C1363.65 396.6 1366.15 398.6 1366.15 401.8C1366.15 406.2 1362.45 408.9 1355.55 408.9H1342.45ZM1378.54 451H1435.14L1439.54 434.5H1402.14L1405.14 423.4H1438.54L1442.64 408.1H1409.24L1412.14 397.5H1448.94L1453.44 381H1397.34L1378.54 451Z" fill="url(#paint2_linear)" fill-opacity="0.04"/>
<path d="M-438.033 77H-416.933L-408.533 64.5H-381.533L-379.833 77H-359.433L-370.333 6.5H-389.333L-438.033 77ZM-398.733 49.4L-385.633 29.3L-383.133 49.4H-398.733ZM-359.294 77H-339.794L-334.394 56.9H-322.894C-302.194 56.9 -288.094 46.1 -288.094 28.7C-288.094 22.9 -289.894 18.1 -293.594 14.4C-298.694 9.3 -306.194 7 -317.594 7H-340.494L-359.294 77ZM-330.394 41.8L-325.494 23.3H-318.294C-314.694 23.3 -311.894 24.1 -309.994 26C-308.694 27.3 -307.994 29 -307.994 30.9C-307.994 37.5 -313.494 41.8 -323.094 41.8H-330.394ZM-297.106 77H-240.506L-236.106 60.5H-273.506L-270.506 49.4H-237.106L-233.006 34.1H-266.406L-263.506 23.5H-226.706L-222.206 7H-278.306L-297.106 77ZM-235.212 77H-215.712L-208.612 50.4H-183.912L-191.112 77H-171.612L-152.812 7H-172.312L-179.312 33.2H-204.012L-196.912 7H-216.412L-235.212 77ZM-172.428 91H-155.128L-150.028 77H-111.828L-115.628 91H-99.2281L-88.7281 60H-96.6281L-82.4281 7H-136.728L-139.028 15.7C-146.028 42 -151.628 50.8 -158.528 60H-164.228L-172.428 91ZM-137.728 60C-132.628 52.6 -127.728 41.4 -124.428 30.4L-122.328 23.5H-106.128L-116.028 60H-137.728ZM-98.0914 77H-76.9914L-68.5914 64.5H-41.5914L-39.8914 77H-19.4914L-30.3914 6.5H-49.3914L-98.0914 77ZM-58.7914 49.4L-45.6914 29.3L-43.1914 49.4H-58.7914ZM-2.81797 77H18.282L26.682 64.5H53.682L55.382 77H75.782L64.882 6.5H45.882L-2.81797 77ZM36.482 49.4L49.582 29.3L52.082 49.4H36.482ZM75.9211 77H112.221C133.921 77 144.021 67.8 144.021 55.7C144.021 48.5 139.621 43.9 133.421 41.7C143.221 39.3 149.121 32.7 149.121 23.8C149.121 14.9 142.921 7 123.821 7H94.7211L75.9211 77ZM99.0211 61.4L102.521 48.5H115.921C121.621 48.5 124.521 50.4 124.521 54C124.521 58.4 120.421 61.4 113.721 61.4H99.0211ZM106.221 34.9L109.421 22.6H121.521C127.421 22.6 129.921 24.6 129.921 27.8C129.921 32.2 126.221 34.9 119.321 34.9H106.221ZM154.604 77H174.104L188.304 24H209.304L213.804 7H152.504L147.904 24H168.904L154.604 77ZM236.58 78.3C260.88 78.3 278.28 58.4 278.28 37.1C278.28 19.3 264.78 5.69999 244.88 5.69999C220.58 5.69999 203.18 25.6 203.18 46.9C203.18 64.7 216.68 78.3 236.58 78.3ZM238.28 60.9C228.38 60.9 222.98 54.3 222.98 45.4C222.98 35 230.98 23.1 243.18 23.1C253.08 23.1 258.48 29.7 258.48 38.6C258.48 49 250.58 60.9 238.28 60.9ZM335.263 78.4C348.563 78.4 357.763 73 364.563 65.3L351.463 53.7C346.963 58.2 342.563 60.8 336.463 60.8C328.363 60.8 322.463 55.3 322.463 46.4C322.463 34.2 331.763 23.3 343.363 23.3C350.263 23.3 354.663 26.6 357.463 32.3L374.263 23.3C370.063 12.5 360.163 5.6 345.863 5.6C318.963 5.6 302.163 27.1 302.163 47.8C302.163 66.5 315.863 78.4 335.263 78.4ZM386.253 77H422.553C444.253 77 454.353 67.8 454.353 55.7C454.353 48.5 449.953 43.9 443.753 41.7C453.553 39.3 459.453 32.7 459.453 23.8C459.453 14.9 453.253 7 434.153 7H405.053L386.253 77ZM409.353 61.4L412.853 48.5H426.253C431.953 48.5 434.853 50.4 434.853 54C434.853 58.4 430.753 61.4 424.053 61.4H409.353ZM416.553 34.9L419.753 22.6H431.853C437.753 22.6 440.253 24.6 440.253 27.8C440.253 32.2 436.553 34.9 429.653 34.9H416.553ZM452.64 77H485.64C504.74 77 519.14 67.1 519.14 49C519.14 37.7 509.64 29 493.54 29H484.84L490.74 7H471.34L452.64 77ZM476.34 60.7L480.84 44.2H490.44C496.24 44.2 499.24 47.5 499.24 51.1C499.24 58 493.14 60.7 486.44 60.7H476.34ZM519.94 77H539.34L558.04 7H538.64L519.94 77ZM546.37 77H565.87L570.07 61.1L582.17 50L592.27 77H613.27L597.67 37.7L630.67 7H605.97L577.07 35L584.67 7H565.17L546.37 77ZM630.038 78C640.838 78 648.938 73.1 658.438 60.4L698.538 7H676.638L652.638 40.2L645.538 7H624.938L638.438 58.7C635.638 61.1 633.338 61.7 631.638 61.7C629.538 61.7 626.538 61.1 624.338 59.3L612.938 73.3C616.938 76.1 623.338 78 630.038 78ZM679.827 77H699.327L713.527 24H737.227L722.927 77H742.427L761.227 7H698.627L679.827 77ZM789.334 78.3C813.634 78.3 831.034 58.4 831.034 37.1C831.034 19.3 817.534 5.69999 797.634 5.69999C773.334 5.69999 755.934 25.6 755.934 46.9C755.934 64.7 769.434 78.3 789.334 78.3ZM791.034 60.9C781.134 60.9 775.734 54.3 775.734 45.4C775.734 35 783.734 23.1 795.934 23.1C805.834 23.1 811.234 29.7 811.234 38.6C811.234 49 803.334 60.9 791.034 60.9ZM825.882 77H845.082L855.782 37L866.082 64.2H866.482L891.582 36.8L880.882 77H900.382L919.182 7H897.382L873.582 34.1L864.282 7H844.682L825.882 77ZM930.237 77H966.538C988.238 77 998.338 67.8 998.338 55.7C998.338 48.5 993.938 43.9 987.738 41.7C997.538 39.3 1003.44 32.7 1003.44 23.8C1003.44 14.9 997.238 7 978.138 7H949.038L930.237 77ZM953.338 61.4L956.838 48.5H970.238C975.938 48.5 978.838 50.4 978.838 54C978.838 58.4 974.738 61.4 968.038 61.4H953.338ZM960.538 34.9L963.738 22.6H975.838C981.738 22.6 984.237 24.6 984.237 27.8C984.237 32.2 980.538 34.9 973.638 34.9H960.538ZM1019.36 77H1038.56L1049.26 37L1059.56 64.2H1059.96L1085.06 36.8L1074.36 77H1093.86L1112.66 7H1090.86L1067.06 34.1L1057.76 7H1038.16L1019.36 77ZM1140.78 78.3C1165.08 78.3 1182.48 58.4 1182.48 37.1C1182.48 19.3 1168.98 5.69999 1149.08 5.69999C1124.78 5.69999 1107.38 25.6 1107.38 46.9C1107.38 64.7 1120.88 78.3 1140.78 78.3ZM1142.48 60.9C1132.58 60.9 1127.18 54.3 1127.18 45.4C1127.18 35 1135.18 23.1 1147.38 23.1C1157.28 23.1 1162.68 29.7 1162.68 38.6C1162.68 49 1154.78 60.9 1142.48 60.9ZM1216.73 78.4C1230.03 78.4 1239.23 73 1246.03 65.3L1232.93 53.7C1228.43 58.2 1224.03 60.8 1217.93 60.8C1209.83 60.8 1203.93 55.3 1203.93 46.4C1203.93 34.2 1213.23 23.3 1224.83 23.3C1231.73 23.3 1236.13 26.6 1238.93 32.3L1255.73 23.3C1251.53 12.5 1241.63 5.6 1227.33 5.6C1200.43 5.6 1183.63 27.1 1183.63 47.8C1183.63 66.5 1197.33 78.4 1216.73 78.4ZM1244.98 77H1264.48L1268.68 61.1L1280.78 50L1290.88 77H1311.88L1296.28 37.7L1329.28 7H1304.58L1275.68 35L1283.28 7H1263.78L1244.98 77ZM1312.15 77H1348.45C1370.15 77 1380.25 67.8 1380.25 55.7C1380.25 48.5 1375.85 43.9 1369.65 41.7C1379.45 39.3 1385.35 32.7 1385.35 23.8C1385.35 14.9 1379.15 7 1360.05 7H1330.95L1312.15 77ZM1335.25 61.4L1338.75 48.5H1352.15C1357.85 48.5 1360.75 50.4 1360.75 54C1360.75 58.4 1356.65 61.4 1349.95 61.4H1335.25ZM1342.45 34.9L1345.65 22.6H1357.75C1363.65 22.6 1366.15 24.6 1366.15 27.8C1366.15 32.2 1362.45 34.9 1355.55 34.9H1342.45ZM1378.54 77H1435.14L1439.54 60.5H1402.14L1405.14 49.4H1438.54L1442.64 34.1H1409.24L1412.14 23.5H1448.94L1453.44 7H1397.34L1378.54 77Z" fill="url(#paint3_linear)" fill-opacity="0.04"/>
<defs>
<linearGradient id="paint0_linear" x1="508" y1="1122" x2="508" y2="1220" gradientUnits="userSpaceOnUse">
<stop/>
<stop offset="1" stop-opacity="0"/>
</linearGradient>
<linearGradient id="paint1_linear" x1="508" y1="748" x2="508" y2="846" gradientUnits="userSpaceOnUse">
<stop/>
<stop offset="1" stop-opacity="0"/>
</linearGradient>
<linearGradient id="paint2_linear" x1="508" y1="374" x2="508" y2="472" gradientUnits="userSpaceOnUse">
<stop/>
<stop offset="1" stop-opacity="0"/>
</linearGradient>
<linearGradient id="paint3_linear" x1="508" y1="0" x2="508" y2="98" gradientUnits="userSpaceOnUse">
<stop/>
<stop offset="1" stop-opacity="0"/>
</linearGradient>
</defs>
</svg>
